<?xml version="1.0" standalone="no"?>
<!DOCTYPE svg PUBLIC "-//W3C//DTD SVG 20010904//EN"
 "http://www.w3.org/TR/2001/REC-SVG-20010904/DTD/svg10.dtd">
<svg version="1.0" xmlns="http://www.w3.org/2000/svg"
 width="335.000000pt" height="302.000000pt" viewBox="0 0 335.000000 302.000000"
 preserveAspectRatio="xMidYMid meet">

<g transform="translate(0.000000,302.000000) scale(0.100000,-0.100000)"
fill="#000000" stroke="none">
<path d="M763 2529 c-58 -28 -73 -65 -73 -178 l0 -91 940 0 940 0 0 96 c0 79
-4 102 -20 129 -42 67 -10 65 -923 65 -810 0 -823 0 -864 -21z m1351 -105 c41
-41 1 -84 -79 -84 -56 0 -95 20 -95 50 0 36 27 50 95 50 44 0 68 -5 79 -16z
m270 0 c41 -41 1 -84 -79 -84 -56 0 -95 20 -95 50 0 36 27 50 95 50 44 0 68
-5 79 -16z"/>
<path d="M690 1995 l0 -165 -45 0 c-55 0 -110 -21 -124 -48 -8 -14 -11 -204
-11 -600 l0 -580 -149 -122 c-164 -133 -181 -157 -157 -215 9 -22 25 -36 46
-44 24 -8 401 -11 1382 -11 1480 0 1405 -3 1426 59 20 57 2 81 -159 212 l-149
121 0 69 c0 38 -2 69 -4 69 -2 0 -20 -7 -40 -15 -35 -15 -36 -17 -36 -65 l0
-50 -1040 0 -1040 0 0 565 0 565 50 0 50 0 0 -503 c0 -378 3 -506 12 -515 9
-9 196 -12 782 -11 648 0 765 3 735 14 -53 19 -116 53 -162 86 l-40 29 -567 0
c-427 0 -569 3 -578 12 -16 16 -15 53 1 67 10 7 169 12 531 13 l517 3 -30 41
c-38 53 -75 127 -91 182 l-13 42 -452 0 c-475 0 -475 0 -475 45 0 45 1 45 464
45 l441 0 1 103 c1 174 62 329 182 458 71 77 128 120 213 160 104 49 165 63
291 63 l118 1 0 43 0 42 -940 0 -940 0 0 -165z m1079 16 c6 -10 7 -21 3 -25
-3 -4 0 -11 8 -16 8 -5 11 -12 7 -16 -4 -4 -13 -2 -19 4 -7 7 -20 12 -30 12
-21 0 -33 22 -24 45 8 21 43 19 55 -4z m-551 -13 c7 -7 12 -21 12 -33 0 -41
-16 -45 -185 -45 -169 0 -185 4 -185 45 0 41 16 45 185 45 112 0 165 -4 173
-12z m540 -180 c15 -15 15 -51 0 -66 -17 -17 -869 -17 -886 0 -15 15 -15 51 0
66 17 17 869 17 886 0z m-450 -180 c7 -7 12 -21 12 -33 0 -42 -14 -45 -230
-45 -147 0 -209 3 -218 12 -15 15 -15 51 0 66 17 17 419 17 436 0z m365 -189
c13 -21 1 -69 -18 -69 -8 0 -16 -10 -16 -22 l-2 -23 -4 23 -4 22 -373 0 c-391
0 -396 1 -396 45 0 45 3 45 414 43 343 -3 390 -5 399 -19z m-145 -351 c7 -7
12 -21 12 -33 0 -12 -5 -26 -12 -33 -17 -17 -639 -17 -656 0 -15 15 -15 51 0
66 17 17 639 17 656 0z m1316 -681 l137 -112 -676 -3 c-371 -1 -979 -1 -1350
0 l-676 3 137 113 137 112 1077 0 1077 0 137 -113z"/>
<path d="M1725 2011 c-8 -15 3 -31 21 -31 9 0 14 7 12 17 -4 20 -24 28 -33 14z"/>
<path d="M2313 1966 c-208 -51 -394 -243 -439 -455 -58 -276 76 -553 329 -675
156 -76 350 -76 512 0 312 145 439 519 279 824 -77 147 -202 247 -379 301 -70
22 -221 24 -302 5z m237 -431 c5 -13 -10 -74 -42 -172 -44 -139 -51 -153 -75
-159 -30 -8 -56 5 -61 30 -4 18 85 294 101 314 16 20 69 11 77 -13z m-259 -36
c25 -25 18 -51 -25 -90 l-31 -28 38 -36 c20 -20 37 -44 37 -54 0 -28 -35 -54
-63 -47 -32 8 -127 110 -127 136 0 23 83 118 115 131 30 12 33 11 56 -12z
m450 -36 c43 -41 59 -63 59 -83 0 -20 -16 -42 -59 -83 -63 -60 -80 -67 -105
-41 -25 24 -19 55 16 91 l32 33 -32 33 c-35 36 -41 67 -16 91 25 26 42 19 105
-41z"/>
</g>
</svg>
